<svg width="16" height="16" viewBox="0 0 16 16" fill="none" xmlns="http://www.w3.org/2000/svg">
<g clip-path="url(#clip0_1_381)">
<path d="M2.03334 6.20666C2.005 6.12203 1.99394 6.03257 2.00082 5.94358C2.0077 5.8546 2.03238 5.7679 2.07339 5.68864C2.1144 5.60937 2.17091 5.53914 2.23957 5.48212C2.30823 5.4251 2.38763 5.38244 2.47309 5.35668C2.55854 5.33092 2.64829 5.32258 2.73702 5.33216C2.82576 5.34173 2.91166 5.36902 2.98965 5.41242C3.06764 5.45581 3.13612 5.51442 3.19104 5.58478C3.24595 5.65513 3.28618 5.7358 3.30934 5.82199C4.70001 10.4793 11.2973 10.48 12.6893 5.82466C12.7143 5.7407 12.7555 5.66248 12.8107 5.59446C12.8659 5.52644 12.9339 5.46995 13.0109 5.42823C13.088 5.3865 13.1724 5.36036 13.2595 5.35128C13.3467 5.3422 13.4347 5.35037 13.5187 5.37532C13.6026 5.40027 13.6809 5.44152 13.7489 5.4967C13.8169 5.55188 13.8734 5.61992 13.9151 5.69693C13.9568 5.77394 13.983 5.85841 13.9921 5.94553C14.0011 6.03265 13.993 6.1207 13.968 6.20466C13.7254 7.03878 13.314 7.81415 12.7593 8.48266L13.6093 9.33332C13.7308 9.45906 13.798 9.62746 13.7965 9.80226C13.7949 9.97705 13.7248 10.1443 13.6012 10.2679C13.4776 10.3915 13.3104 10.4616 13.1356 10.4631C12.9608 10.4646 12.7924 10.3974 12.6667 10.276L11.7927 9.40199C11.321 9.75766 10.7999 10.0427 10.246 10.248L10.484 11.138C10.5094 11.2234 10.5174 11.3129 10.5076 11.4015C10.4978 11.49 10.4704 11.5756 10.4269 11.6534C10.3834 11.7311 10.3248 11.7994 10.2546 11.8541C10.1843 11.9088 10.1038 11.9489 10.0177 11.9719C9.93171 11.995 9.84194 12.0006 9.75371 11.9884C9.66549 11.9762 9.58061 11.9465 9.50407 11.9009C9.42753 11.8554 9.3609 11.795 9.3081 11.7232C9.25531 11.6515 9.21742 11.5699 9.19667 11.4833L8.95401 10.5787C8.32267 10.672 7.67734 10.672 7.04601 10.5787L6.80334 11.4833C6.78259 11.5699 6.74471 11.6515 6.69191 11.7232C6.63911 11.795 6.57248 11.8554 6.49594 11.9009C6.41941 11.9465 6.33452 11.9762 6.2463 11.9884C6.15807 12.0006 6.0683 11.995 5.98228 11.9719C5.89626 11.9489 5.81573 11.9088 5.74546 11.8541C5.67518 11.7994 5.61658 11.7311 5.57312 11.6534C5.52966 11.5756 5.50221 11.49 5.4924 11.4015C5.48259 11.3129 5.49062 11.2234 5.51601 11.138L5.75401 10.248C5.20004 10.0424 4.67901 9.75722 4.20734 9.40132L3.33401 10.276C3.209 10.4012 3.03939 10.4716 2.86248 10.4717C2.68557 10.4718 2.51586 10.4017 2.39067 10.2767C2.26549 10.1517 2.19509 9.98204 2.19497 9.80513C2.19484 9.62822 2.265 9.4585 2.39001 9.33332L3.24001 8.48332C2.71734 7.85932 2.30001 7.10066 2.03201 6.20732L2.03334 6.20666Z" fill="#737373"/>
</g>
<defs>
<clipPath id="clip0_1_381">
<rect width="16" height="16" fill="white"/>
</clipPath>
</defs>
</svg>
